<?xml version="1.0" encoding="iso-8859-1"?>
<!-- Uploaded to: SVG Repo, www.svgrepo.com, Generator: SVG Repo Mixer Tools -->
<svg fill="rgb(100 116 139/0.8)" height="800px" width="800px" version="1.1" id="Layer_1" xmlns="http://www.w3.org/2000/svg" xmlns:xlink="http://www.w3.org/1999/xlink" 
	 viewBox="0 0 512 512" xml:space="preserve">
<g>
	<g>
		<path d="M9.002,0c-4.661,0-8.44,3.778-8.44,8.44v93.543c0,4.661,3.779,8.44,8.44,8.44s8.44-3.778,8.44-8.44V8.44
			C17.442,3.778,13.663,0,9.002,0z"/>
	</g>
</g>
<g>
	<g>
		<path d="M502.998,495.121h-62.606V120.967c0-4.662-3.779-8.44-8.44-8.44h-74.678c-4.661,0-8.44,3.778-8.44,8.44v95.648
			c0,4.662,3.779,8.44,8.44,8.44s8.44-3.778,8.44-8.44v-87.209h57.799v365.714h-57.799V250.374c0-4.662-3.779-8.44-8.44-8.44
			s-8.44,3.778-8.44,8.44v244.747h-44.499v-290.24c0-4.662-3.779-8.44-8.44-8.44h-74.678c-4.661,0-8.44,3.778-8.44,8.44v290.24
			H168.28V298.192c0-4.662-3.779-8.44-8.44-8.44H85.163c-4.661,0-8.44,3.778-8.44,8.44v109.72c0,4.662,3.779,8.44,8.44,8.44
			s8.44-3.778,8.44-8.44v-101.28h57.799v188.489H93.603V441.67c0-4.662-3.779-8.44-8.44-8.44s-8.44,3.778-8.44,8.44v53.451H17.442
			v-359.38c0-4.662-3.779-8.44-8.44-8.44s-8.44,3.778-8.44,8.44v367.82c0,4.662,3.779,8.44,8.44,8.44h76.161h74.678h61.378h74.678
			h61.378h74.678h71.045c4.661,0,8.44-3.778,8.44-8.44C511.437,498.898,507.659,495.121,502.998,495.121z M287.457,495.121h-57.799
			v-281.8h57.799V495.121z"/>
	</g>
</g>
</svg>