<?xml version="1.0" encoding="iso-8859-1"?>
<!-- Uploaded to: SVG Repo, www.svgrepo.com, Generator: SVG Repo Mixer Tools -->
<svg fill="rgb(100 116 139/0.8)" height="800px" width="800px" version="1.1" id="Layer_1" xmlns="http://www.w3.org/2000/svg" xmlns:xlink="http://www.w3.org/1999/xlink" 
	 viewBox="0 0 511.999 511.999" xml:space="preserve">
<g>
	<g>
		<path d="M511.982,239.016C503.735,111.012,400.988,8.265,272.984,0.018c-2.237-0.149-4.426,0.643-6.059,2.173
			c-1.632,1.531-2.559,3.668-2.559,5.906v119.447c0,4.084,3.043,7.529,7.096,8.034c54.995,6.851,98.335,50.024,105.397,104.99
			c0.519,4.04,3.958,7.065,8.031,7.065h119.012c2.238,0,4.377-0.926,5.906-2.559C511.34,243.442,512.126,241.249,511.982,239.016z
			 M391.828,231.439c-10.252-56.559-54.671-100.816-111.268-110.861V16.889c113.021,11.371,203.18,101.53,214.55,214.55H391.828z"/>
	</g>
</g>
<g>
	<g>
		<path d="M245.614,2.191c-1.632-1.53-3.828-2.317-6.059-2.173c-55.869,3.599-107.866,24.835-150.37,61.41
			c-3.39,2.917-3.773,8.029-0.856,11.419c2.916,3.389,8.028,3.773,11.419,0.856c37.62-32.373,83.178-51.917,132.23-56.817v103.699
			c-44.766,8.008-83.377,38.197-101.857,80.145c-1.803,4.093,0.053,8.871,4.146,10.674c1.062,0.469,2.17,0.69,3.26,0.69
			c3.111,0,6.079-1.804,7.413-4.836c17.167-38.965,54.004-66.431,96.136-71.68c4.054-0.504,7.096-3.949,7.096-8.034V8.098
			C248.173,5.859,247.247,3.722,245.614,2.191z"/>
	</g>
</g>
<g>
	<g>
		<path d="M509.809,266.386c-1.531-1.632-3.668-2.559-5.906-2.559H385.008c-4.097,0-7.547,3.06-8.039,7.128
			c-7.353,60.921-59.243,106.861-120.7,106.861c-67.045,0-121.59-54.544-121.59-121.59c0-6.912,0.584-13.839,1.735-20.592
			c0.753-4.409-2.212-8.591-6.62-9.343c-4.413-0.751-8.591,2.212-9.343,6.62c-1.304,7.649-1.965,15.493-1.965,23.314
			c0,75.974,61.809,137.784,137.784,137.784c67.223,0,124.347-48.517,135.728-113.987h103.115
			c-5.774,57.486-31.971,110.674-74.348,150.563c-44.681,42.059-103.1,65.222-164.495,65.222
			c-64.126,0-124.415-24.972-169.759-70.316C41.167,380.145,16.194,319.856,16.194,255.73c0-20.279,2.532-40.422,7.524-59.869
			c10.011-38.999,29.98-75.197,57.749-104.68c3.067-3.256,2.914-8.38-0.342-11.446c-3.255-3.067-8.38-2.913-11.446,0.342
			c-29.64,31.469-50.957,70.114-61.646,111.757c-5.33,20.762-8.032,42.26-8.032,63.896c0,68.452,26.657,132.807,75.059,181.21
			c48.404,48.403,112.759,75.059,181.21,75.059c65.537,0,127.898-24.726,175.594-69.624
			c47.484-44.697,75.938-105.047,80.118-169.931C512.126,270.211,511.34,268.018,509.809,266.386z"/>
	</g>
</g>
</svg>